solid voron350_awd_bed
  facet normal 0 0 1
    outer loop
      vertex 40 40 0
      vertex 40 0 0
      vertex 310 0 0
    endloop
  endfacet
  facet normal 0 0 -1
    outer loop
      vertex 310 0 -8
      vertex 40 0 -8
      vertex 40 40 -8
    endloop
  endfacet
  facet normal 0 0 1
    outer loop
      vertex 40 40 0
      vertex 310 0 0
      vertex 310 40 0
    endloop
  endfacet
  facet normal 0 0 -1
    outer loop
      vertex 310 40 -8
      vertex 310 0 -8
      vertex 40 40 -8
    endloop
  endfacet
  facet normal 0 0 1
    outer loop
      vertex 310 40 0
      vertex 350 40 0
      vertex 350 350 0
    endloop
  endfacet
  facet normal 0 0 -1
    outer loop
      vertex 350 350 -8
      vertex 350 40 -8
      vertex 310 40 -8
    endloop
  endfacet
  facet normal 0 0 1
    outer loop
      vertex 40 40 0
      vertex 310 40 0
      vertex 350 350 0
    endloop
  endfacet
  facet normal 0 0 -1
    outer loop
      vertex 350 350 -8
      vertex 310 40 -8
      vertex 40 40 -8
    endloop
  endfacet
  facet normal 0 0 1
    outer loop
      vertex 40 40 0
      vertex 350 350 0
      vertex 0 350 0
    endloop
  endfacet
  facet normal 0 0 -1
    outer loop
      vertex 0 350 -8
      vertex 350 350 -8
      vertex 40 40 -8
    endloop
  endfacet
  facet normal 0 0 1
    outer loop
      vertex 40 40 0
      vertex 0 350 0
      vertex 0 40 0
    endloop
  endfacet
  facet normal 0 0 -1
    outer loop
      vertex 0 40 -8
      vertex 0 350 -8
      vertex 40 40 -8
    endloop
  endfacet
  facet normal 0 0 0
    outer loop
      vertex 40 0 -8
      vertex 310 0 -8
      vertex 310 0 0
    endloop
  endfacet
  facet normal 0 0 0
    outer loop
      vertex 40 0 -8
      vertex 310 0 0
      vertex 40 0 0
    endloop
  endfacet
  facet normal 0 0 0
    outer loop
      vertex 310 0 -8
      vertex 310 40 -8
      vertex 310 40 0
    endloop
  endfacet
  facet normal 0 0 0
    outer loop
      vertex 310 0 -8
      vertex 310 40 0
      vertex 310 0 0
    endloop
  endfacet
  facet normal 0 0 0
    outer loop
      vertex 310 40 -8
      vertex 350 40 -8
      vertex 350 40 0
    endloop
  endfacet
  facet normal 0 0 0
    outer loop
      vertex 310 40 -8
      vertex 350 40 0
      vertex 310 40 0
    endloop
  endfacet
  facet normal 0 0 0
    outer loop
      vertex 350 40 -8
      vertex 350 350 -8
      vertex 350 350 0
    endloop
  endfacet
  facet normal 0 0 0
    outer loop
      vertex 350 40 -8
      vertex 350 350 0
      vertex 350 40 0
    endloop
  endfacet
  facet normal 0 0 0
    outer loop
      vertex 350 350 -8
      vertex 0 350 -8
      vertex 0 350 0
    endloop
  endfacet
  facet normal 0 0 0
    outer loop
      vertex 350 350 -8
      vertex 0 350 0
      vertex 350 350 0
    endloop
  endfacet
  facet normal 0 0 0
    outer loop
      vertex 0 350 -8
      vertex 0 40 -8
      vertex 0 40 0
    endloop
  endfacet
  facet normal 0 0 0
    outer loop
      vertex 0 350 -8
      vertex 0 40 0
      vertex 0 350 0
    endloop
  endfacet
  facet normal 0 0 0
    outer loop
      vertex 0 40 -8
      vertex 40 40 -8
      vertex 40 40 0
    endloop
  endfacet
  facet normal 0 0 0
    outer loop
      vertex 0 40 -8
      vertex 40 40 0
      vertex 0 40 0
    endloop
  endfacet
  facet normal 0 0 0
    outer loop
      vertex 40 40 -8
      vertex 40 0 -8
      vertex 40 0 0
    endloop
  endfacet
  facet normal 0 0 0
    outer loop
      vertex 40 40 -8
      vertex 40 0 0
      vertex 40 40 0
    endloop
  endfacet
endsolid voron350_awd_bed
